<?xml version="1.0" encoding="utf-8"?>
<!-- Generator: Adobe Illustrator 15.1.0, SVG Export Plug-In  -->
<!DOCTYPE svg PUBLIC "-//W3C//DTD SVG 1.1//EN" "http://www.w3.org/Graphics/SVG/1.1/DTD/svg11.dtd" [
	<!ENTITY ns_flows "http://ns.adobe.com/Flows/1.0/">
]>
<svg version="1.1"
	 xmlns="http://www.w3.org/2000/svg" xmlns:xlink="http://www.w3.org/1999/xlink" xmlns:a="http://ns.adobe.com/AdobeSVGViewerExtensions/3.0/"
	 x="0px" y="0px" width="1500px" height="350px" viewBox="0 0 1500 350" enable-background="new 0 0 1500 350" xml:space="preserve"
	>
<defs>
</defs>
<rect fill-rule="evenodd" clip-rule="evenodd" fill="#65C8CE" width="1500" height="349.998"/>
<path fill-rule="evenodd" clip-rule="evenodd" fill="#FFFFFF" d="M503.562,190.83c0.345,0,0.69,0.057,1.036,0.188
	c0.345,0.131,0.675,0.359,0.992,0.676l5.781,6.082c-2.531,3.307-5.695,5.795-9.504,7.479c-3.812,1.682-8.326,2.529-13.532,2.529
	c-4.774,0-9.044-0.818-12.826-2.445c-3.782-1.623-6.989-3.867-9.62-6.727c-2.631-2.863-4.659-6.258-6.068-10.182
	c-1.409-3.926-2.114-8.184-2.114-12.783c0-4.689,0.762-9.002,2.287-12.927c1.524-3.926,3.666-7.306,6.427-10.152
	c2.761-2.849,6.069-5.062,9.922-6.645c3.854-1.581,8.095-2.372,12.726-2.372c2.358,0,4.587,0.202,6.672,0.619
	s4.026,0.993,5.838,1.725c1.812,0.734,3.479,1.625,5.004,2.661c1.524,1.036,2.876,2.157,4.055,3.365l-4.917,6.6
	c-0.317,0.403-0.691,0.763-1.122,1.093c-0.432,0.332-1.036,0.502-1.812,0.502c-0.518,0-1.006-0.114-1.467-0.344
	c-0.46-0.23-0.949-0.519-1.467-0.849c-0.518-0.332-1.078-0.691-1.696-1.078c-0.619-0.389-1.352-0.749-2.2-1.08
	c-0.849-0.33-1.841-0.603-2.977-0.833c-1.136-0.23-2.474-0.346-3.998-0.346c-2.416,0-4.617,0.446-6.615,1.336
	c-1.998,0.894-3.725,2.188-5.176,3.898c-1.453,1.711-2.575,3.811-3.365,6.297c-0.791,2.488-1.193,5.334-1.193,8.528
	c0,3.22,0.446,6.082,1.322,8.583c0.877,2.502,2.071,4.602,3.581,6.313s3.264,3.02,5.277,3.91c2.013,0.893,4.17,1.34,6.471,1.34
	c1.322,0,2.531-0.074,3.624-0.201c1.092-0.131,2.113-0.346,3.063-0.65c0.949-0.301,1.84-0.703,2.674-1.205
	c0.834-0.504,1.683-1.139,2.545-1.912c0.345-0.289,0.719-0.533,1.121-0.721C502.713,190.916,503.13,190.83,503.562,190.83z"/>
<path fill-rule="evenodd" clip-rule="evenodd" fill="#FFFFFF" d="M535.873,161.67c3.394,0,6.485,0.531,9.275,1.595
	c2.788,1.064,5.19,2.588,7.189,4.573c1.999,1.984,3.551,4.387,4.659,7.219c1.107,2.832,1.653,6.025,1.653,9.562
	c0,3.564-0.546,6.773-1.653,9.633c-1.108,2.863-2.66,5.293-4.659,7.291c-1.999,2-4.401,3.537-7.189,4.615
	c-2.791,1.078-5.882,1.625-9.275,1.625c-3.423,0-6.529-0.547-9.333-1.625c-2.803-1.078-5.219-2.615-7.247-4.615
	c-2.028-1.998-3.595-4.428-4.702-7.291c-1.108-2.859-1.668-6.068-1.668-9.633c0-3.537,0.561-6.73,1.668-9.562
	c1.106-2.832,2.674-5.235,4.702-7.219c2.027-1.985,4.443-3.509,7.247-4.573C529.344,162.201,532.449,161.67,535.873,161.67
	L535.873,161.67z M535.873,197.861c3.077,0,5.349-1.092,6.801-3.264c1.453-2.17,2.171-5.465,2.171-9.893
	c0-4.43-0.718-7.721-2.171-9.878c-1.453-2.159-3.724-3.237-6.801-3.237c-3.164,0-5.479,1.078-6.946,3.237
	c-1.467,2.157-2.199,5.448-2.199,9.878c0,4.428,0.732,7.723,2.199,9.893C530.394,196.77,532.709,197.861,535.873,197.861z"/>
<path fill-rule="evenodd" clip-rule="evenodd" fill="#FFFFFF" d="M577.716,167.192c0.862-0.806,1.754-1.555,2.674-2.244
	c0.92-0.69,1.913-1.28,2.962-1.754c1.05-0.474,2.187-0.849,3.409-1.121c1.222-0.274,2.545-0.403,3.982-0.403
	c2.444,0,4.616,0.417,6.499,1.266c1.884,0.848,3.466,2.026,4.76,3.536c1.294,1.51,2.271,3.309,2.934,5.394
	c0.662,2.085,0.992,4.356,0.992,6.801v28.428h-13.373v-28.428c0-2.188-0.503-3.898-1.509-5.119
	c-1.007-1.223-2.487-1.827-4.443-1.827c-1.467,0-2.833,0.304-4.113,0.92c-1.28,0.618-2.531,1.467-3.738,2.531v31.923h-13.373V162.36
	h8.282c1.668,0,2.761,0.747,3.279,2.244L577.716,167.192z"/>
<path fill-rule="evenodd" clip-rule="evenodd" fill="#FFFFFF" d="M629.956,207.783c-2.128,0-3.997-0.316-5.622-0.936
	c-1.625-0.617-2.991-1.492-4.098-2.631c-1.107-1.135-1.956-2.502-2.531-4.111c-0.574-1.611-0.862-3.408-0.862-5.391V171.59h-3.796
	c-0.691,0-1.28-0.228-1.769-0.676c-0.488-0.445-0.732-1.092-0.732-1.955v-5.218l7.118-1.381l2.632-10.915
	c0.344-1.379,1.322-2.069,2.933-2.069h6.988v13.07h11.086v9.145h-11.086v22.216c0,1.035,0.258,1.885,0.762,2.561
	c0.502,0.674,1.223,1.02,2.171,1.02c0.489,0,0.906-0.057,1.237-0.158c0.331-0.1,0.619-0.215,0.863-0.346
	c0.245-0.127,0.475-0.244,0.69-0.344c0.216-0.102,0.46-0.145,0.748-0.145c0.401,0,0.733,0.086,0.978,0.275
	c0.244,0.186,0.488,0.488,0.748,0.891l4.055,6.342c-1.725,1.293-3.666,2.256-5.823,2.902
	C634.486,207.453,632.257,207.783,629.956,207.783z"/>
<path fill-rule="evenodd" clip-rule="evenodd" fill="#FFFFFF" d="M670.161,188.889c-2.674,0.117-4.875,0.348-6.6,0.691
	c-1.725,0.346-3.091,0.775-4.099,1.293c-1.006,0.52-1.697,1.107-2.084,1.77c-0.388,0.662-0.59,1.381-0.59,2.156
	c0,1.525,0.417,2.588,1.251,3.207c0.834,0.619,2.056,0.934,3.667,0.934c1.725,0,3.235-0.301,4.529-0.904
	c1.294-0.605,2.603-1.582,3.926-2.934V188.889L670.161,188.889z M646.09,168.571c2.704-2.386,5.709-4.168,9.001-5.334
	c3.293-1.164,6.817-1.74,10.583-1.74c2.703,0,5.147,0.431,7.319,1.308s4.011,2.1,5.521,3.666c1.51,1.569,2.66,3.437,3.465,5.595
	c0.806,2.157,1.208,4.514,1.208,7.074v27.953h-6.126c-1.265,0-2.214-0.172-2.861-0.518s-1.193-1.064-1.625-2.158l-0.949-2.459
	c-1.122,0.951-2.2,1.785-3.236,2.502c-1.035,0.721-2.1,1.322-3.207,1.828c-1.106,0.502-2.286,0.877-3.538,1.121
	c-1.25,0.244-2.645,0.373-4.168,0.373c-2.042,0-3.897-0.271-5.565-0.805c-1.667-0.533-3.077-1.309-4.242-2.344
	c-1.165-1.035-2.07-2.33-2.703-3.867c-0.633-1.539-0.949-3.309-0.949-5.32c0-1.611,0.402-3.252,1.208-4.904
	c0.806-1.654,2.2-3.162,4.184-4.529c1.984-1.365,4.66-2.502,8.024-3.424c3.365-0.918,7.607-1.438,12.726-1.551v-1.898
	c0-2.617-0.532-4.515-1.61-5.681c-1.078-1.164-2.618-1.74-4.602-1.74c-1.581,0-2.875,0.173-3.882,0.517
	c-1.006,0.346-1.898,0.734-2.689,1.166c-0.79,0.432-1.567,0.82-2.315,1.166c-0.748,0.344-1.64,0.517-2.674,0.517
	c-0.921,0-1.697-0.229-2.33-0.691c-0.633-0.46-1.15-1.005-1.553-1.638L646.09,168.571z"/>
<path fill-rule="evenodd" clip-rule="evenodd" fill="#FFFFFF" d="M724.602,172.972c-0.403,0.488-0.791,0.877-1.165,1.164
	c-0.375,0.289-0.906,0.434-1.596,0.434c-0.661,0-1.251-0.159-1.783-0.476c-0.531-0.315-1.135-0.675-1.797-1.064
	c-0.661-0.389-1.438-0.732-2.33-1.05c-0.891-0.315-1.998-0.474-3.321-0.474c-1.639,0-3.048,0.303-4.242,0.905
	c-1.193,0.604-2.186,1.467-2.961,2.59c-0.777,1.121-1.353,2.486-1.726,4.111c-0.374,1.625-0.561,3.465-0.561,5.508
	c0,4.285,0.834,7.576,2.487,9.877c1.654,2.301,3.926,3.453,6.83,3.453c1.553,0,2.791-0.201,3.696-0.59
	c0.906-0.389,1.668-0.82,2.301-1.295c0.633-0.473,1.223-0.906,1.755-1.307c0.532-0.404,1.193-0.605,1.998-0.605
	c1.064,0,1.87,0.387,2.416,1.164l3.883,4.789c-1.382,1.582-2.833,2.861-4.357,3.854c-1.525,0.992-3.078,1.768-4.673,2.33
	c-1.596,0.559-3.207,0.947-4.818,1.164c-1.61,0.215-3.177,0.33-4.702,0.33c-2.732,0-5.334-0.518-7.823-1.553
	c-2.487-1.035-4.673-2.545-6.556-4.516c-1.884-1.969-3.379-4.385-4.487-7.262c-1.106-2.877-1.668-6.154-1.668-9.834
	c0-3.221,0.489-6.242,1.453-9.045c0.963-2.804,2.387-5.232,4.271-7.29c1.884-2.057,4.213-3.668,6.988-4.846s5.982-1.768,9.634-1.768
	c3.509,0,6.586,0.56,9.232,1.681c2.646,1.123,5.033,2.763,7.161,4.919L724.602,172.972z"/>
<path fill-rule="evenodd" clip-rule="evenodd" fill="#FFFFFF" d="M749.708,207.783c-2.128,0-3.998-0.316-5.622-0.936
	c-1.626-0.617-2.991-1.492-4.099-2.631c-1.107-1.135-1.955-2.502-2.531-4.111c-0.574-1.611-0.862-3.408-0.862-5.391V171.59h-3.795
	c-0.691,0-1.28-0.228-1.769-0.676c-0.489-0.445-0.733-1.092-0.733-1.955v-5.218l7.118-1.381l2.632-10.915
	c0.345-1.379,1.322-2.069,2.933-2.069h6.988v13.07h11.087v9.145h-11.087v22.216c0,1.035,0.26,1.885,0.762,2.561
	c0.502,0.674,1.223,1.02,2.173,1.02c0.488,0,0.905-0.057,1.234-0.158c0.332-0.1,0.619-0.215,0.863-0.346
	c0.246-0.127,0.474-0.244,0.691-0.344c0.216-0.102,0.46-0.145,0.747-0.145c0.402,0,0.734,0.086,0.979,0.275
	c0.244,0.186,0.488,0.488,0.746,0.891l4.055,6.342c-1.725,1.293-3.666,2.256-5.822,2.902
	C754.238,207.453,752.008,207.783,749.708,207.783z"/>
<path fill-rule="evenodd" clip-rule="evenodd" fill="#FFFFFF" d="M814.545,195.574c1.955,0,3.709-0.328,5.249-0.977
	c1.538-0.646,2.832-1.568,3.896-2.773c1.064-1.209,1.885-2.691,2.443-4.43c0.562-1.74,0.835-3.711,0.835-5.926v-37.226h14.581
	v37.226c0,3.854-0.618,7.393-1.87,10.613c-1.251,3.221-3.048,5.996-5.377,8.324c-2.329,2.33-5.163,4.143-8.498,5.438
	c-3.337,1.293-7.09,1.939-11.259,1.939c-4.199,0-7.968-0.646-11.302-1.939c-3.337-1.295-6.171-3.107-8.498-5.438
	c-2.33-2.328-4.114-5.104-5.351-8.324c-1.235-3.221-1.854-6.76-1.854-10.613v-37.226h14.579v37.185c0,2.213,0.289,4.184,0.849,5.924
	c0.562,1.74,1.367,3.221,2.431,4.443c1.064,1.221,2.372,2.156,3.91,2.803C810.85,195.246,812.59,195.574,814.545,195.574z"/>
<path fill-rule="evenodd" clip-rule="evenodd" fill="#FFFFFF" d="M878.131,172.152c-0.346,0.545-0.706,0.936-1.094,1.164
	c-0.389,0.232-0.892,0.346-1.496,0.346c-0.633,0-1.266-0.143-1.898-0.417c-0.632-0.273-1.308-0.56-2.04-0.877
	c-0.734-0.317-1.568-0.619-2.488-0.892c-0.92-0.272-1.97-0.402-3.149-0.402c-1.697,0-2.991,0.315-3.896,0.964
	c-0.905,0.647-1.367,1.553-1.367,2.702c0,0.834,0.304,1.526,0.894,2.071c0.588,0.545,1.365,1.021,2.344,1.439
	c0.977,0.416,2.083,0.818,3.32,1.193c1.237,0.373,2.502,0.789,3.796,1.25c1.294,0.459,2.56,0.992,3.797,1.611
	c1.237,0.617,2.344,1.379,3.322,2.285c0.977,0.906,1.768,2.014,2.358,3.307c0.59,1.295,0.876,2.846,0.876,4.66
	c0,2.215-0.402,4.256-1.208,6.125s-1.998,3.479-3.595,4.832c-1.596,1.352-3.566,2.4-5.91,3.148s-5.046,1.121-8.096,1.121
	c-1.523,0-3.048-0.145-4.571-0.43c-1.524-0.289-2.991-0.676-4.415-1.166c-1.424-0.488-2.746-1.078-3.955-1.754
	c-1.206-0.676-2.242-1.395-3.104-2.172l3.104-4.916c0.346-0.576,0.791-1.037,1.324-1.367c0.531-0.33,1.207-0.488,2.041-0.488
	c0.777,0,1.481,0.172,2.1,0.518c0.618,0.344,1.279,0.719,1.998,1.121c0.72,0.402,1.568,0.775,2.53,1.121
	c0.965,0.346,2.173,0.518,3.64,0.518c1.036,0,1.911-0.115,2.631-0.33c0.719-0.215,1.294-0.502,1.726-0.877s0.749-0.791,0.95-1.252
	c0.199-0.459,0.301-0.934,0.301-1.424c0-0.891-0.301-1.625-0.905-2.199c-0.604-0.576-1.396-1.078-2.374-1.494
	c-0.977-0.418-2.084-0.807-3.335-1.166c-1.251-0.361-2.53-0.762-3.824-1.223s-2.56-1.02-3.812-1.666
	c-1.251-0.648-2.372-1.469-3.351-2.461s-1.768-2.199-2.372-3.637c-0.604-1.439-0.905-3.178-0.905-5.221
	c0-1.898,0.372-3.709,1.106-5.42c0.732-1.711,1.825-3.206,3.292-4.5s3.309-2.33,5.521-3.093c2.216-0.761,4.804-1.135,7.766-1.135
	c1.609,0,3.179,0.143,4.688,0.431c1.51,0.287,2.92,0.69,4.242,1.207c1.322,0.519,2.531,1.123,3.624,1.827
	c1.092,0.704,2.057,1.481,2.891,2.315L878.131,172.152z"/>
<path fill-rule="evenodd" clip-rule="evenodd" fill="#FCC7A7" d="M275.567,152.236c-1.064,0.584-2.556,0.94-4.703,0.985
	c-7.672,0.165-7.232-4.163-7.232-9.295c0-5.131,3.241-9.296,7.232-9.296c0.565,0,1.113,0.092,1.643,0.248
	c-2.292-1.577-16.037-9.527-18.985,24.384l-0.803,42.655h-50.705l21.729,102.207l24.948-32.189c0,0,20.927-38.633,28.971-51.508
	C283.202,211.564,278.832,174.487,275.567,152.236z"/>
<rect x="169.021" y="267.908" fill-rule="evenodd" clip-rule="evenodd" fill="#FCC7A7" width="79.67" height="47.484"/>
<path fill-rule="evenodd" clip-rule="evenodd" fill="#FBBF9D" d="M275.567,152.236c-1.064,0.584-2.556,0.94-4.703,0.985
	c-1.955,0.043-3.379-0.209-4.423-0.689c0.151,6.25-0.297,12.508,0.298,18.742c1.478,15.51,3.759,27.313,0.938,40.901
	c-2.899,13.961-12.93,33.729-21.569,44.994c-7.435,9.693-16.284,19.184-26.928,25.498l4.563,21.457l24.948-32.189
	c0,0,20.927-38.633,28.971-51.508C283.202,211.564,278.832,174.487,275.567,152.236z"/>
<path fill-rule="evenodd" clip-rule="evenodd" fill="#EEBBA0" d="M270.864,134.629c0.565,0,1.113,0.092,1.643,0.248
	c-0.313-0.215-0.835-0.547-1.515-0.875c-0.14,0.213-0.276,0.431-0.413,0.645C270.675,134.644,270.769,134.629,270.864,134.629z"/>
<path fill-rule="evenodd" clip-rule="evenodd" fill="#FDDFD5" d="M263.631,143.925c0,5.133-0.439,9.46,7.232,9.295
	c2.147-0.044,3.639-0.401,4.703-0.985c-1.477-10.079-2.731-17.116-2.731-17.116s-0.122-0.098-0.329-0.242
	c-0.53-0.156-1.078-0.248-1.643-0.248C266.872,134.629,263.631,138.794,263.631,143.925z"/>
<rect x="207.711" y="267.908" fill-rule="evenodd" clip-rule="evenodd" fill="#FBBF9D" width="40.981" height="47.484"/>
<path fill-rule="evenodd" clip-rule="evenodd" fill="#FFFFFF" d="M253.522,255.752c0,8.936-6.482,16.182-14.487,16.182h-67.6
	c-8.004,0-14.491-7.246-14.491-16.182V103.819c0-8.938,6.487-16.185,14.491-16.185h67.6c8.005,0,14.487,7.247,14.487,16.185V255.752
	z"/>
<path fill-rule="evenodd" clip-rule="evenodd" fill="#51C6DB" d="M247.083,245.373V103.819c0-0.03,0-0.057,0-0.085h-83.697
	c0,0.029,0,0.055,0,0.085v141.554H247.083z"/>
<rect x="163.386" y="215.191" fill-rule="evenodd" clip-rule="evenodd" fill="#112D3C" width="83.697" height="30.182"/>
<path fill-rule="evenodd" clip-rule="evenodd" fill="#FCC7A7" d="M173.073,247.924c3.876,3.57,3.835,9.906-0.081,14.154l0,0
	c-3.916,4.248-10.226,4.801-14.096,1.232l-26.965-24.855c-3.871-3.57-3.836-9.904,0.08-14.154l0,0
	c3.917-4.248,10.232-4.799,14.103-1.23L173.073,247.924z"/>
<path fill-rule="evenodd" clip-rule="evenodd" fill="#FCC7A7" d="M173.129,209.281c3.396,3.129,2.979,9.115-0.938,13.363l0,0
	c-3.917,4.248-9.848,5.152-13.246,2.021l-23.665-21.813c-3.396-3.133-2.973-9.115,0.943-13.363l0,0
	c3.916-4.248,9.844-5.154,13.24-2.021L173.129,209.281z"/>
<path fill-rule="evenodd" clip-rule="evenodd" fill="#FCC7A7" d="M175.18,171.863c3.155,2.907,2.536,8.708-1.38,12.958l0,0
	c-3.917,4.248-9.653,5.334-12.802,2.428l-21.965-20.25c-3.156-2.909-2.54-8.71,1.376-12.958l0,0
	c3.916-4.25,9.647-5.336,12.801-2.429L175.18,171.863z"/>
<path fill-rule="evenodd" clip-rule="evenodd" fill="#FCC7A7" d="M156.945,121.438c0,0-17.701-17.705-26.556-9.658
	c-8.852,8.049,7.243,27.36,26.556,37.02V121.438z"/>
<path fill-rule="evenodd" clip-rule="evenodd" fill="#FDDFD5" d="M168.628,250.057c3.63,3.635,4.708,8.441,2.405,10.742
	s-7.113,1.227-10.74-2.404c-3.629-3.631-6.708-6.205-2.405-10.74C162.192,243.121,165,246.43,168.628,250.057z"/>
<path fill-rule="evenodd" clip-rule="evenodd" fill="#FDDFD5" d="M166.391,208.973c3.628,3.631,4.707,8.441,2.404,10.742
	c-2.303,2.303-7.112,1.227-10.741-2.406c-3.628-3.627-6.709-6.203-2.404-10.738S162.762,205.344,166.391,208.973z"/>
<path fill-rule="evenodd" clip-rule="evenodd" fill="#FDDFD5" d="M169.605,171.953c3.635,3.632,4.709,8.44,2.41,10.743
	c-2.303,2.303-7.112,1.225-10.741-2.406c-3.634-3.629-6.708-6.205-2.404-10.739C163.174,165.015,165.977,168.323,169.605,171.953z"
	/>
<rect x="162.852" y="299.027" fill-rule="evenodd" clip-rule="evenodd" fill="#FFFFFF" width="89.061" height="6.975"/>
<rect x="164.459" y="328" fill-rule="evenodd" clip-rule="evenodd" fill="#2C4049" width="86.385" height="21.998"/>
<rect x="167.914" y="330.305" fill-rule="evenodd" clip-rule="evenodd" fill="#395968" width="3.242" height="17.646"/>
<rect x="174.806" y="330.305" fill-rule="evenodd" clip-rule="evenodd" fill="#395968" width="3.242" height="17.646"/>
<rect x="181.698" y="330.305" fill-rule="evenodd" clip-rule="evenodd" fill="#395968" width="3.242" height="17.646"/>
<rect x="188.591" y="330.305" fill-rule="evenodd" clip-rule="evenodd" fill="#395968" width="3.241" height="17.646"/>
<rect x="195.482" y="330.305" fill-rule="evenodd" clip-rule="evenodd" fill="#395968" width="3.242" height="17.646"/>
<rect x="202.375" y="330.305" fill-rule="evenodd" clip-rule="evenodd" fill="#395968" width="3.241" height="17.646"/>
<rect x="209.266" y="330.305" fill-rule="evenodd" clip-rule="evenodd" fill="#395968" width="3.241" height="17.646"/>
<rect x="216.159" y="330.305" fill-rule="evenodd" clip-rule="evenodd" fill="#395968" width="3.241" height="17.646"/>
<rect x="223.051" y="330.305" fill-rule="evenodd" clip-rule="evenodd" fill="#395968" width="3.241" height="17.646"/>
<rect x="229.942" y="330.305" fill-rule="evenodd" clip-rule="evenodd" fill="#395968" width="3.241" height="17.646"/>
<rect x="236.835" y="330.305" fill-rule="evenodd" clip-rule="evenodd" fill="#395968" width="3.241" height="17.646"/>
<rect x="243.727" y="330.305" fill-rule="evenodd" clip-rule="evenodd" fill="#395968" width="3.241" height="17.646"/>
<rect x="156.951" y="304.93" fill-rule="evenodd" clip-rule="evenodd" fill="#395968" width="105.693" height="26.289"/>
<path fill-rule="evenodd" clip-rule="evenodd" fill="#FBF1E5" d="M258.355,317.27c0,3.854-3.126,6.977-6.976,6.977
	c-3.851,0-6.977-3.123-6.977-6.977s3.126-6.973,6.977-6.973C255.229,310.297,258.355,313.416,258.355,317.27z"/>
<circle fill-rule="evenodd" clip-rule="evenodd" fill="#395968" cx="249.444" cy="315.627" r="1.315"/>
<circle fill-rule="evenodd" clip-rule="evenodd" fill="#395968" cx="253.166" cy="315.627" r="1.315"/>
<circle fill-rule="evenodd" clip-rule="evenodd" fill="#395968" cx="249.444" cy="319.141" r="1.315"/>
<circle fill-rule="evenodd" clip-rule="evenodd" fill="#395968" cx="253.166" cy="319.141" r="1.315"/>
<path fill-rule="evenodd" clip-rule="evenodd" fill="#FFFFFF" d="M217.197,155.095c0.083,0.551,0.169,1.115,0.169,1.717l0,0
	c0,3.874-1.862,7.312-4.74,9.467l0,0c4.785-2.527,8.049-7.526,8.049-13.316l0,0c-0.014-8.354-6.773-15.11-15.126-15.126l0,0
	c-8.35,0.016-15.11,6.773-15.126,15.126l0,0c0,5.79,3.267,10.789,8.051,13.313l0,0c-2.878-2.154-4.741-5.59-4.742-9.464l0,0
	c0-4.327,2.353-8.071,5.816-10.127l0,0l0.256-0.155l0.125,0.272c1.05,2.263,3.214,4.606,6.206,6.335l0,0
	c2.637,1.522,5.378,2.267,7.689,2.267l0,0c1.125,0,2.147-0.177,3.006-0.521l0,0l0.316-0.126L217.197,155.095L217.197,155.095
	L217.197,155.095z M207.825,167.859c5.139-1.05,9-5.597,9-11.047l0,0c0-0.439-0.051-0.871-0.114-1.308l0,0
	c-0.863,0.295-1.837,0.439-2.888,0.439l0,0c-2.424,0-5.248-0.775-7.96-2.34l0,0c-2.958-1.711-5.142-4.004-6.292-6.301l0,0
	c-3.172,1.996-5.301,5.487-5.301,9.509l0,0c0,5.451,3.87,9.998,9.004,11.047l0,0l-0.054,0.265l0.041-0.267l-0.041,0.267l0.054-0.265
	l-0.095,0.533c-7.515-1.149-13.299-7.587-13.299-15.43l0,0c0-8.653,7.018-15.668,15.667-15.668l0,0
	c8.653,0,15.667,7.015,15.667,15.668l0,0c0,7.843-5.777,14.28-13.294,15.43l0,0L207.825,167.859L207.825,167.859z"/>
<path fill-rule="evenodd" clip-rule="evenodd" fill="#FFFFFF" d="M186.303,199.422c-2.277-0.004-4.115-1.844-4.119-4.119v-11.549
	c0-6.527,5.292-11.816,11.817-11.816h2.194v0.271c0.01,5.167,4.188,9.342,9.353,9.352l0,0c5.166-0.01,9.343-4.186,9.353-9.352
	v-0.271h2.195v0.539h-1.658c-0.145,5.341-4.516,9.623-9.89,9.623l0,0c-5.375,0-9.747-4.281-9.89-9.623h-1.657
	c-6.227,0.013-11.266,5.05-11.278,11.277v11.549c0,1.979,1.6,3.578,3.58,3.578h38.491c1.979,0,3.579-1.6,3.58-3.578l0,0
	l-0.001-11.549c-0.011-6.227-5.044-11.264-11.276-11.277v-0.539c6.531,0,11.816,5.291,11.816,11.816v11.549
	c-0.003,2.275-1.842,4.115-4.119,4.119H186.303L186.303,199.422z"/>
<path fill-rule="evenodd" clip-rule="evenodd" fill="#FFFFFF" d="M233.912,232.344c-1.268,0-2.298-1.01-2.298-2.254
	c0-1.24,1.03-2.25,2.298-2.25c1.267,0,2.297,1.01,2.297,2.25C236.209,231.332,235.179,232.344,233.912,232.344L233.912,232.344z
	 M238.828,228.482l-0.064-0.021l-0.249-0.594l0.027-0.063c0.752-1.707,0.702-1.758,0.577-1.879l-1.004-0.979
	c-0.042-0.043-0.114-0.072-0.175-0.072c-0.057,0-0.228,0-1.71,0.672l-0.06,0.027l-0.611-0.246l-0.024-0.063
	c-0.698-1.725-0.77-1.725-0.942-1.725h-1.419c-0.172,0-0.25,0-0.896,1.727l-0.025,0.066l-0.608,0.248l-0.058-0.025
	c-1.004-0.422-1.59-0.639-1.743-0.639c-0.062,0-0.134,0.029-0.176,0.07l-1.004,0.982c-0.128,0.123-0.181,0.176,0.611,1.85
	l0.03,0.061l-0.25,0.592l-0.06,0.025c-1.767,0.684-1.767,0.748-1.767,0.926v1.391c0,0.178,0,0.252,1.77,0.885l0.064,0.023
	l0.248,0.592l-0.026,0.059c-0.753,1.707-0.706,1.754-0.578,1.883l1.003,0.98c0.042,0.039,0.115,0.068,0.177,0.068
	c0.056,0,0.226,0,1.71-0.672l0.06-0.027l0.611,0.248l0.023,0.061c0.698,1.727,0.769,1.727,0.943,1.727h1.418
	c0.178,0,0.251,0,0.899-1.73l0.023-0.063l0.61-0.246l0.059,0.021c1.002,0.426,1.587,0.639,1.74,0.639
	c0.061,0,0.133-0.025,0.175-0.068l1.008-0.982c0.125-0.129,0.179-0.18-0.616-1.848l-0.029-0.064l0.248-0.59l0.06-0.021
	c1.77-0.688,1.77-0.756,1.77-0.932v-1.391C240.599,229.189,240.599,229.115,238.828,228.482z"/>
<polygon fill-rule="evenodd" clip-rule="evenodd" fill="#FFFFFF" points="203.643,231.711 198.21,226.941 209.076,226.941 "/>
<polygon fill-rule="evenodd" clip-rule="evenodd" fill="#FFFFFF" points="201.478,230.678 197.67,234.023 197.67,227.336 "/>
<polygon fill-rule="evenodd" clip-rule="evenodd" fill="#FFFFFF" points="201.972,231.111 203.643,232.578 205.313,231.111 
	209.079,234.42 198.206,234.42 "/>
<polygon fill-rule="evenodd" clip-rule="evenodd" fill="#FFFFFF" points="205.807,230.678 209.615,227.336 209.615,234.023 "/>
<path fill-rule="evenodd" clip-rule="evenodd" fill="#FFFFFF" d="M179.966,232.414c-0.745,0.744-0.745,1.488-1.489,1.488
	s-1.488-0.744-2.233-1.488c-0.744-0.742-1.488-1.488-1.488-2.232c0-0.742,0.745-0.742,1.488-1.486
	c0.745-0.746-1.488-2.979-2.233-2.979s-2.232,2.232-2.232,2.232c0,1.49,1.529,4.506,2.977,5.953
	c1.449,1.449,4.466,2.979,5.955,2.979c0,0,2.232-1.488,2.232-2.232C182.943,233.902,180.711,231.672,179.966,232.414z"/>
<path fill-rule="evenodd" clip-rule="evenodd" fill="#FFFFFF" d="M296.083,132.544h68.876c2.686,0,4.862,2.175,4.862,4.861v52.669
	c0,0.203-0.016,0.4-0.041,0.596c-1.748,26.973-67.214,28.576-67.214,28.576c19.972-6.053,28.64-18.43,31.75-24.311h-38.233
	c-2.685,0-4.861-2.176-4.861-4.861v-52.669C291.222,134.719,293.399,132.544,296.083,132.544z"/>
<path fill-rule="evenodd" clip-rule="evenodd" fill="#EF4438" d="M328.882,153.345c-3.647,0.81-6.586,3.75-7.396,7.396
	c-1.605,7.235,4.698,13.538,11.933,11.935c3.646-0.81,6.588-3.75,7.397-7.396C342.419,158.044,336.117,151.742,328.882,153.345
	L328.882,153.345z M318.564,153.093c0-1.052-0.854-1.907-1.907-1.907c-1.052,0-1.907,0.854-1.907,1.907
	c0,1.054,0.854,1.908,1.907,1.908C317.709,155.001,318.564,154.146,318.564,153.093L318.564,153.093z M347.17,152.826v20.367
	c0,1.538-1.246,2.786-2.783,2.786h-31.048c-1.538-0.002-2.784-1.248-2.784-2.783v-20.37c0-1.538,1.246-2.785,2.784-2.785h0.268
	v-0.619c0-0.5,0.406-0.905,0.906-0.905h4.291c0.5,0,0.906,0.405,0.906,0.905v0.619h2.363l1.869-3.862
	c0.211-0.438,0.653-0.714,1.137-0.714h12.147c0.484,0,0.925,0.276,1.134,0.714l1.87,3.862h4.157
	C345.924,150.043,347.17,151.288,347.17,152.826L347.17,152.826z M337.934,164.095c-0.444,2.893-2.806,5.255-5.697,5.699
	c-4.639,0.71-8.579-3.229-7.869-7.868c0.444-2.891,2.806-5.255,5.698-5.698C334.704,155.518,338.643,159.455,337.934,164.095z"/>
<path fill-rule="evenodd" clip-rule="evenodd" fill="#FFFFFF" d="M125.109,42.599H56.234c-2.686,0-4.863,2.177-4.863,4.862v52.669
	c0,0.204,0.017,0.399,0.041,0.594c1.749,26.975,67.214,28.577,67.214,28.577c-19.972-6.051-28.64-18.429-31.75-24.309h38.232
	c2.686,0,4.861-2.177,4.861-4.862V47.461C129.97,44.775,127.794,42.599,125.109,42.599z"/>
<circle fill-rule="evenodd" clip-rule="evenodd" fill="#FBB031" cx="72.114" cy="69.552" r="4.862"/>
<circle fill-rule="evenodd" clip-rule="evenodd" fill="#FBB031" cx="90.481" cy="69.552" r="4.862"/>
<circle fill-rule="evenodd" clip-rule="evenodd" fill="#FBB031" cx="108.849" cy="69.552" r="4.862"/>
<path fill-rule="evenodd" clip-rule="evenodd" fill="#FBB031" d="M136.94,286.475c0,1.033-0.837,1.871-1.869,1.871h-12.468
	c-1.032,0-1.87-0.838-1.87-1.871V274.01c0-1.033,0.838-1.871,1.87-1.871h12.468c1.032,0,1.869,0.838,1.869,1.871V286.475z"/>
<path fill-rule="evenodd" clip-rule="evenodd" fill="#FFFFFF" d="M128.094,284.725c-0.324,0-0.629-0.152-0.825-0.41l-2.652-3.504
	c-0.345-0.455-0.254-1.104,0.201-1.449c0.456-0.344,1.104-0.254,1.449,0.201l1.745,2.303l4.386-7.043
	c0.302-0.486,0.94-0.635,1.426-0.33c0.484,0.301,0.633,0.939,0.33,1.424l-5.181,8.32c-0.18,0.289-0.492,0.471-0.831,0.486
	C128.125,284.723,128.11,284.725,128.094,284.725z"/>
<path fill-rule="evenodd" clip-rule="evenodd" fill="#FBB031" d="M347.669,256.6c0,2.07-1.677,3.748-3.747,3.748h-24.979
	c-2.069,0-3.747-1.678-3.747-3.748v-24.979c0-2.07,1.677-3.748,3.747-3.748h24.979c2.069,0,3.747,1.678,3.747,3.748V256.6z"/>
<path fill-rule="evenodd" clip-rule="evenodd" fill="#FFFFFF" d="M338.943,247.559c-0.245-0.428-0.553-1.021-0.691-1.527
	c-0.2-0.738-0.682-0.025-0.721,0.455c-0.041,0.482-0.361,0.842-1.003,0.119c-0.641-0.719-0.762-0.561-0.962-0.561
	c-0.201,0-0.561,0.482-0.481,2.727c0.057,1.604,0.69,1.859,1.103,1.975c-0.767,0.527-1.649,0.943-2.638,1.195
	c-3.783,0.957-7.644-0.783-9.447-4.248c-1.682-3.227-0.862-6.879,0.846-8.889c0.047,0.361,0.091,0.688,0.128,1.012
	c0.103,0.893,0.025,1.77-0.155,2.645c-0.039,0.186-0.025,0.398,0.024,0.58c0.028,0.104,0.179,0.221,0.283,0.229
	c0.082,0.008,0.226-0.121,0.259-0.217c0.06-0.178,0.062-0.373,0.081-0.561c0.014-0.131,0.014-0.266,0.022-0.473
	c0.137,0.109,0.235,0.174,0.317,0.258c0.21,0.211,0.421,0.42,0.613,0.646c0.084,0.102,0.171,0.242,0.168,0.365
	c-0.005,0.258,0.11,0.434,0.248,0.639c0.156,0.227,0.225,0.51,0.323,0.771c0.042,0.111,0.051,0.234,0.101,0.34
	c0.105,0.227,0.266,0.383,0.541,0.4c0.288,0.018,0.396,0.129,0.438,0.426c-0.074,0.008-0.147,0.02-0.221,0.025
	c-0.353,0.035-0.528,0.195-0.514,0.551c0.026,0.709,0.282,1.324,0.807,1.816c0.145,0.135,0.298,0.262,0.438,0.398
	c0.321,0.318,0.432,0.691,0.279,1.131c-0.075,0.207-0.175,0.412-0.209,0.627c-0.032,0.219-0.032,0.457,0.018,0.672
	c0.053,0.223,0.03,0.713,0.261,0.672c0.408-0.07,0.641,0.008,0.673-0.449c0.006-0.086,0-0.096-0.023-0.178
	c-0.121-0.428,0.43-1.645,0.759-1.865c0.283-0.191,0.565-0.385,0.821-0.605c0.368-0.322,0.533-0.736,0.379-1.217
	c-0.146-0.455,0.024-0.789,0.342-1.078c0.322-0.301,0.536-0.643,0.514-1.102c-0.022-0.457-0.322-0.787-0.713-0.74
	c-0.19,0.02-0.374,0.113-0.561,0.176c-0.273,0.092-0.539,0.223-0.819,0.271c-0.393,0.068-0.635-0.188-0.81-0.498
	c-0.141-0.25-0.188-0.27-0.432-0.115c-0.207,0.133-0.413,0.268-0.626,0.385c-0.223,0.125-0.344,0.078-0.515-0.107
	c-0.102-0.107-0.241-0.186-0.371-0.264c-0.094-0.061-0.221-0.074-0.294-0.145c-0.102-0.098-0.242-0.242-0.228-0.348
	c0.018-0.125,0.16-0.279,0.286-0.33c0.214-0.088,0.459-0.102,0.69-0.15c0.124-0.027,0.248-0.055,0.365-0.102
	c0.159-0.064,0.153-0.17,0.031-0.268c-0.06-0.049-0.135-0.082-0.207-0.109c-0.353-0.143-0.708-0.279-1.059-0.422
	c-0.088-0.035-0.174-0.078-0.253-0.129c-0.222-0.145-0.247-0.307-0.047-0.482c0.793-0.701,1.719-0.906,2.54,0.023
	c0.254,0.289,0.426,0.648,0.667,0.949c0.189,0.238,0.406,0.463,0.646,0.646c0.1,0.076,0.321,0.09,0.432,0.029
	c0.164-0.092,0.17-0.299,0.088-0.469c-0.072-0.148-0.156-0.297-0.256-0.426c-0.467-0.602-0.435-1.771,0.479-2.262
	c0.305-0.162,0.613-0.336,0.759-0.775c-0.175,0.049-0.301,0.08-0.426,0.117c-0.693,0.215-0.21-0.305,0.108-0.395
	c0.195-0.055-0.173-0.203-0.173-0.203c0.008-0.014,0.243-0.08,0.505-0.193c0.18-0.074,0.364-0.162,0.513-0.285
	c0.098-0.078,0.135-0.229,0.199-0.35c-0.016-0.018-0.033-0.035-0.05-0.055c-0.183,0.025-0.366,0.051-0.55,0.072
	c-0.31,0.033-0.382-0.027-0.412-0.34c-0.021-0.215-0.239-0.332-0.443-0.223c-0.138,0.076-0.257,0.184-0.391,0.27
	c-0.306,0.199-0.535,0.119-0.656-0.223c-0.071-0.203-0.171-0.242-0.359-0.129c-0.095,0.059-0.173,0.141-0.27,0.193
	c-0.158,0.09-0.316,0.178-0.485,0.238c-0.165,0.057-0.363,0.1-0.475-0.08c-0.12-0.195-0.016-0.383,0.135-0.506
	c0.189-0.15,0.407-0.268,0.619-0.389c0.303-0.168,0.623-0.311,0.915-0.496c0.215-0.137,0.307-0.357,0.238-0.623
	c-0.059-0.219-0.207-0.295-0.412-0.195c-0.169,0.086-0.318,0.219-0.492,0.285c-0.127,0.049-0.286,0.049-0.423,0.025
	c-0.051-0.008-0.104-0.148-0.105-0.23c-0.002-0.047,0.094-0.129,0.154-0.137c0.422-0.066,0.845-0.121,1.27-0.17
	c0.056-0.006,0.14,0.027,0.176,0.072c0.279,0.354,0.67,0.525,1.082,0.646c0.345,0.105,0.395,0.057,0.442-0.307
	c0.443-0.105,0.894-0.311,1.341-0.029c0.247,0.156,0.473,0.355,0.682,0.561c0.054,0.051,0.021,0.209-0.004,0.311
	c-0.032,0.137-0.109,0.266-0.143,0.402c-0.068,0.264,0.104,0.471,0.378,0.467c0.086,0,0.174-0.02,0.26-0.023
	c0.253-0.01,0.344,0.084,0.32,0.342c-0.033,0.361,0.027,0.406,0.393,0.346c0.107-0.02,0.228,0.027,0.335,0.066
	c0.065,0.023,0.114,0.084,0.17,0.127c0.342,0.258,0.601,0.16,0.701-0.262c0.011-0.043,0.01-0.096,0.019-0.139
	c0.04-0.191,0.146-0.24,0.274-0.107c0.271,0.289,0.525,0.59,0.799,0.904c-0.294,0.268-0.304,0.598-0.238,0.922
	c0.071,0.357-0.022,0.668-0.165,0.986c-0.136,0.301-0.284,0.602-0.374,0.92c-0.136,0.475,0.017,0.691,0.5,0.797
	c0.46,0.1,0.536,0.193,0.553,0.643c0.023,0.615,0.339,1.039,0.877,1.309c0.12,0.059,0.246,0.104,0.369,0.156
	C339.676,245.639,339.405,246.625,338.943,247.559L338.943,247.559z M340.982,242.607c-0.18-1.627-0.777-3.109-1.743-4.434
	c-1.56-2.129-3.642-3.43-6.244-3.885c-0.519-0.09-1.05-0.113-1.575-0.168c-0.034,0-0.068,0-0.104,0
	c-0.491,0.055-0.983,0.09-1.47,0.164c-5.003,0.768-8.619,5.506-8.047,10.543c0.272,2.406,1.281,4.457,3.069,6.094
	c2.127,1.945,4.653,2.779,7.517,2.506c2.198-0.209,4.116-1.094,5.698-2.643C340.377,248.537,341.332,245.791,340.982,242.607z"/>
<path fill-rule="evenodd" clip-rule="evenodd" fill="#F15D29" d="M280.643,83.266c0,1.377-1.116,2.493-2.493,2.493h-16.623
	c-1.377,0-2.493-1.115-2.493-2.493V66.643c0-1.375,1.116-2.49,2.493-2.49h16.623c1.377,0,2.493,1.115,2.493,2.49V83.266z"/>
<path fill-rule="evenodd" clip-rule="evenodd" fill="#FFFFFF" d="M271.604,79.93h2.275v0.578h-2.275v0.181h-2.52v-0.181h-2.806
	V79.93h2.806v-0.291h0.735v-0.726h1.049v0.726h0.735V79.93L271.604,79.93z M274.681,77.69h-8.289c-1.467,0-2.66-1.192-2.66-2.659
	c0-1.176,0.754-2.197,1.877-2.543l0.31-0.096l-0.067-0.317c-0.04-0.183-0.059-0.371-0.059-0.556c0-1.467,1.193-2.659,2.659-2.659
	c1.196,0,2.251,0.806,2.564,1.961l0.079,0.291l0.299-0.031c0.09-0.008,0.181-0.012,0.271-0.012c0.89,0,1.719,0.444,2.214,1.188
	l0.128,0.191l0.227-0.037c0.163-0.028,0.307-0.041,0.445-0.041c1.467,0,2.66,1.192,2.66,2.659S276.147,77.69,274.681,77.69
	L274.681,77.69z M274.681,71.66c-0.11,0-0.223,0.006-0.341,0.02c-0.646-0.846-1.65-1.334-2.725-1.322
	c-0.482-1.314-1.743-2.209-3.163-2.209c-1.858,0-3.371,1.514-3.371,3.371c0,0.132,0.007,0.263,0.023,0.395
	c-1.26,0.517-2.084,1.731-2.084,3.117c0,1.859,1.513,3.371,3.372,3.371h8.289c1.859,0,3.371-1.512,3.371-3.371
	C278.052,73.173,276.54,71.66,274.681,71.66z"/>
<path fill-rule="evenodd" clip-rule="evenodd" fill="#99D8E0" d="M101.199,254.881c0,1.582-1.284,2.867-2.867,2.867H79.216
	c-1.584,0-2.867-1.285-2.867-2.867v-19.117c0-1.582,1.283-2.865,2.867-2.865h19.116c1.583,0,2.867,1.283,2.867,2.865V254.881z"/>
<path fill-rule="evenodd" clip-rule="evenodd" fill="#FFFFFF" d="M95.682,246.77c0-1.252-0.698-2.369-1.791-3.115
	c0.077,0.348,0.122,0.701,0.122,1.07c0,2.828-2.402,5.186-5.563,5.693c0.668,0.268,1.417,0.426,2.216,0.426
	c0.751,0,1.463-0.139,2.104-0.381c0.813,0.277,1.699,0.35,2.432,0.35c-0.382-0.459-0.646-0.906-0.835-1.301
	C95.18,248.787,95.682,247.826,95.682,246.77z"/>
<path fill-rule="evenodd" clip-rule="evenodd" fill="#FFFFFF" d="M92.674,244.289c0-2.693-2.464-4.885-5.495-4.885
	c-3.029,0-5.492,2.189-5.492,4.885c0,1.254,0.552,2.467,1.523,3.373c-0.218,0.529-0.507,1.031-0.86,1.492
	c-0.104,0.135-0.12,0.318-0.041,0.469c0.075,0.145,0.226,0.234,0.389,0.234h0.019c0.464-0.02,1.386-0.33,2.362-0.947
	c0.522,0.092,1.691,0.264,2.1,0.264C90.261,249.174,92.674,247.029,92.674,244.289z"/>
<path fill-rule="evenodd" clip-rule="evenodd" fill="#F15D29" d="M114.252,329.154c0,1.93-1.563,3.492-3.491,3.492H87.489
	c-1.928,0-3.49-1.563-3.49-3.492v-23.273c0-1.926,1.563-3.488,3.49-3.488h23.272c1.928,0,3.491,1.563,3.491,3.488V329.154z"/>
<path fill-rule="evenodd" clip-rule="evenodd" fill="#FFFFFF" d="M99.375,323.92c-13.324-7.268-3.688-16.305,0-10.219
	C103.062,307.615,112.699,316.652,99.375,323.92z"/>
<path fill-rule="evenodd" clip-rule="evenodd" fill="#6FBE44" d="M292.068,282.602c0,1.449-1.175,2.623-2.625,2.623h-17.5
	c-1.45,0-2.625-1.174-2.625-2.623v-17.5c0-1.449,1.175-2.623,2.625-2.623h17.5c1.45,0,2.625,1.174,2.625,2.623V282.602z"/>
<path fill-rule="evenodd" clip-rule="evenodd" fill="#FFFFFF" d="M284.448,277.543c0-0.002,0-0.004,0-0.006v-7.369l-5.967-3.105
	v6.697c-0.82-0.652-2.073-0.586-2.951,0.203c-0.968,0.871-1.111,2.293-0.317,3.174s2.222,0.889,3.189,0.018
	c0.546-0.49,0.829-1.158,0.83-1.801v-5.51l4.44,2.088v3.992c-0.818-0.631-2.057-0.561-2.927,0.221
	c-0.97,0.873-1.11,2.293-0.317,3.174c0.792,0.885,2.222,0.893,3.19,0.02c0.542-0.488,0.826-1.15,0.83-1.793V277.543z"/>
<path fill-rule="evenodd" clip-rule="evenodd" fill="#6FBE44" d="M121.653,193.51c0,2.686-2.177,4.863-4.861,4.863H84.377
	c-2.686,0-4.861-2.178-4.861-4.863v-32.414c0-2.686,2.176-4.862,4.861-4.862h32.415c2.685,0,4.861,2.177,4.861,4.862V193.51z"/>
<path fill-rule="evenodd" clip-rule="evenodd" fill="#FFFFFF" d="M101.641,180.914l0.483,0.002
	c-2.212,1.018-4.923,0.625-6.744-1.195c-2.333-2.334-2.335-6.134,0.002-8.47c0.023-0.024,0.05-0.047,0.074-0.067l-0.638-0.641h2.276
	v2.276l-0.595-0.594c-0.026,0.021-0.052,0.045-0.076,0.067c-1.762,1.762-1.762,4.624,0,6.385c1.411,1.412,3.528,1.688,5.218,0.842
	V180.914L101.641,180.914z M103.846,171.247c-1.831-1.829-4.561-2.218-6.782-1.178h0.611l0.001,1.339
	c1.676-0.795,3.742-0.502,5.127,0.881c1.762,1.76,1.762,4.624,0,6.386c-0.024,0.025-0.052,0.045-0.076,0.07l-0.594-0.598v2.277
	h2.275l-0.638-0.639c0.024-0.021,0.05-0.045,0.075-0.068C106.179,177.381,106.179,173.582,103.846,171.247L103.846,171.247z
	 M107.363,187.404l0.003-24.446H91.862v24.446H107.363L107.363,187.404z M99.613,190.313c-0.593,0-1.074-0.482-1.074-1.08
	c0-0.592,0.481-1.076,1.074-1.076c0.594,0,1.077,0.482,1.077,1.076C100.69,189.83,100.208,190.313,99.613,190.313L99.613,190.313z
	 M97.343,161.096h4.542c0.142,0,0.258,0.116,0.258,0.261c0,0.142-0.116,0.26-0.26,0.26h-4.541c-0.143,0-0.261-0.118-0.261-0.26
	C97.082,161.212,97.201,161.096,97.343,161.096L97.343,161.096z M106.711,159.546H92.516c-1.182,0-2.15,0.966-2.15,2.151v27.536
	c0,1.184,0.968,2.148,2.15,2.148h14.195c1.182,0,2.15-0.965,2.15-2.148v-27.536C108.861,160.512,107.893,159.546,106.711,159.546z"
	/>
<path fill-rule="evenodd" clip-rule="evenodd" fill="#99D8E0" d="M314.791,330.602c0,1.725-1.399,3.125-3.123,3.125h-20.824
	c-1.726,0-3.124-1.4-3.124-3.125v-20.824c0-1.725,1.398-3.123,3.124-3.123h20.824c1.724,0,3.123,1.398,3.123,3.123V330.602z"/>
<path fill-rule="evenodd" clip-rule="evenodd" fill="#FFFFFF" d="M302.956,320.699v-1.07h1.479l-0.343,1.07H302.956L302.956,320.699
	z M297.179,319.629h1.517v1.07h-1.145L297.179,319.629L297.179,319.629z M298.696,315.258v1.113h-2.646l-0.388-1.113H298.696
	L298.696,315.258z M299.686,316.371v-1.113h2.281v1.113H299.686L299.686,316.371z M296.393,317.363h2.303v1.275h-1.859
	L296.393,317.363L296.393,317.363z M301.966,319.629v1.07h-2.281v-1.07H301.966L301.966,319.629z M299.686,318.639v-1.275h2.281
	v1.275H299.686L299.686,318.639z M304.753,318.639h-1.797v-1.275h2.207L304.753,318.639L304.753,318.639z M305.479,316.371h-2.523
	v-1.113h2.88L305.479,316.371L305.479,316.371z M302.887,325.398c-0.364,0-0.66-0.295-0.66-0.658c0-0.365,0.296-0.66,0.66-0.66
	c0.363,0,0.659,0.295,0.659,0.66C303.546,325.104,303.25,325.398,302.887,325.398L302.887,325.398z M297.445,325.398
	c-0.362,0-0.658-0.295-0.658-0.658c0-0.365,0.296-0.66,0.658-0.66c0.364,0,0.661,0.295,0.661,0.66
	C298.106,325.104,297.809,325.398,297.445,325.398L297.445,325.398z M306.915,314.473c-0.094-0.127-0.242-0.203-0.4-0.203h-11.13
	c-0.021,0-0.042,0.002-0.064,0.004l-0.458-1.32c-0.046-0.137-0.151-0.246-0.286-0.299l-2.308-0.904
	c-0.254-0.1-0.542,0.023-0.642,0.277c-0.099,0.256,0.025,0.541,0.28,0.643l2.097,0.822l2.566,7.398
	c-0.114,0.039-0.209,0.125-0.254,0.246l-0.74,2.061c-0.046,0.127-0.028,0.268,0.05,0.377c0.077,0.111,0.202,0.176,0.336,0.176h0.382
	c-0.236,0.264-0.382,0.609-0.382,0.99c0,0.816,0.666,1.484,1.483,1.484c0.819,0,1.485-0.668,1.485-1.484
	c0-0.381-0.145-0.727-0.381-0.99h3.236c-0.236,0.264-0.381,0.609-0.381,0.99c0,0.816,0.666,1.484,1.484,1.484
	c0.818,0,1.483-0.668,1.483-1.484c0-0.381-0.145-0.727-0.38-0.99h0.463c0.228,0,0.412-0.184,0.412-0.412s-0.184-0.414-0.412-0.414
	h-7.904l0.46-1.275c0.059,0.027,0.123,0.041,0.19,0.041h7.254c0.216,0,0.406-0.141,0.471-0.344l2.061-6.432
	C307.033,314.766,307.007,314.6,306.915,314.473z"/>
<path fill-rule="evenodd" clip-rule="evenodd" fill="#FFD449" d="M1399.619,216.709c0,35.42-28.713,64.135-64.133,64.135
	c-35.421,0-64.134-28.715-64.134-64.135V112.736c0-35.421,28.713-64.132,64.134-64.132c35.42,0,64.133,28.711,64.133,64.132V216.709
	z"/>
<rect x="1306.368" y="167.761" fill-rule="evenodd" clip-rule="evenodd" fill="#E5E4E4" width="58.235" height="68.18"/>
<rect x="1290.285" y="210.189" fill-rule="evenodd" clip-rule="evenodd" fill="#0D4878" width="90.401" height="100.955"/>
<path fill-rule="evenodd" clip-rule="evenodd" fill="#EFEEED" d="M1393.707,114.343c-4.62-5.879-11.342,1.681-11.342,1.681
	c0-56.468-46.879-49.569-46.879-49.569s-46.882-6.899-46.882,49.569c0,0-6.716-7.56-11.338-1.681
	c-4.624,5.884,1.679,40.749,11.338,33.61c0,0,9.07,48.308,46.882,48.308c37.807,0,46.879-48.308,46.879-48.308
	C1392.027,155.092,1398.328,120.227,1393.707,114.343z"/>
<path fill-rule="evenodd" clip-rule="evenodd" fill="#100E31" d="M1375.368,201.852c0,0-12.25,73.604-39.882,73.604
	c-27.633,0-39.883-73.604-39.883-73.604c-20.915,0-47.927,18.646-47.927,18.646l-31.146,128.563h118.956h118.957l-27.092-124.207
	C1427.352,224.854,1398.853,201.852,1375.368,201.852z"/>
<path fill-rule="evenodd" clip-rule="evenodd" fill="#00599B" d="M1335.486,210.965c0,0-18.736-5.043-40.157,23.523l-5.044-31.926
	c0,0,8.641-14.471,15.123-14.283C1305.408,188.279,1323.552,205.924,1335.486,210.965z"/>
<path fill-rule="evenodd" clip-rule="evenodd" fill="#00599B" d="M1335.486,210.965c0,0,18.733-5.043,40.158,23.523l5.042-31.926
	c0,0-8.639-14.471-15.124-14.283C1365.563,188.279,1347.42,205.924,1335.486,210.965z"/>
<path fill-rule="evenodd" clip-rule="evenodd" fill="#FFD449" d="M1367.867,84.625c0,0-56.614,43.841-79.263,31.398
	c0,0-14.109-54.623,50.349-54.623c39.811,0,49.381,42.896,43.412,54.623C1382.365,116.024,1368.813,103.109,1367.867,84.625z"/>
<path fill-rule="evenodd" clip-rule="evenodd" fill="#07142E" d="M1270.728,120.679c-0.554-1.638-13.319-40.474,5.882-67.214
	c11.304-15.741,31.111-23.722,58.877-23.722c27.763,0,47.572,7.981,58.876,23.722c19.204,26.74,6.438,65.576,5.886,67.214
	l-7.64-2.569c0.122-0.364,11.991-36.615-4.812-59.971c-9.711-13.493-27.309-20.337-52.311-20.337
	c-25.005,0-42.604,6.844-52.312,20.337c-16.801,23.354-4.93,59.607-4.81,59.971L1270.728,120.679z"/>
<path fill-rule="evenodd" clip-rule="evenodd" fill="#07142E" d="M1366.437,173.34c-2.431,0-4.778-0.085-6.952-0.165
	c-1.92-0.069-3.727-0.137-5.353-0.137v-4.028c1.671,0,3.526,0.065,5.499,0.139c9.51,0.344,21.353,0.779,28.089-5.717
	c3.715-3.581,5.52-8.887,5.52-16.217h4.028c0,8.366-2.271,14.797-6.748,19.116C1384.326,172.302,1374.898,173.34,1366.437,173.34z"
	/>
<path fill-rule="evenodd" clip-rule="evenodd" fill="#05BDCD" d="M1288.131,150.263c0.096,1.109-0.725,2.085-1.833,2.181
	l-19.822,1.715c-1.108,0.098-2.085-0.724-2.181-1.833l-3.335-38.521c-0.094-1.109,0.725-2.083,1.833-2.179l19.826-1.717
	c1.109-0.096,2.084,0.724,2.177,1.833L1288.131,150.263z"/>
<path fill-rule="evenodd" clip-rule="evenodd" fill="#05BDCD" d="M1382.841,150.263c-0.096,1.109,0.725,2.085,1.833,2.181
	l19.826,1.715c1.107,0.098,2.084-0.724,2.18-1.833l3.334-38.521c0.096-1.109-0.729-2.083-1.837-2.179l-19.82-1.717
	c-1.108-0.096-2.085,0.724-2.181,1.833L1382.841,150.263z"/>
<path fill-rule="evenodd" clip-rule="evenodd" fill="#05BDCD" d="M1358.087,174.054c0,1.113-0.903,2.012-2.014,2.012h-9.617
	c-1.111,0-2.015-0.899-2.015-2.012v-6.059c0-1.113,0.903-2.017,2.015-2.017h9.617c1.11,0,2.014,0.903,2.014,2.017V174.054z"/>
<polygon fill-rule="evenodd" clip-rule="evenodd" fill="#EFEEED" points="1340.471,330.436 1293.207,330.436 1313.818,346.863 "/>
<polygon fill-rule="evenodd" clip-rule="evenodd" fill="#0C558B" points="1080.489,207.686 1300.118,207.686 1314.429,349.824 
	1101.713,349.824 "/>
<path fill-rule="evenodd" clip-rule="evenodd" fill="#07142E" d="M1314.545,349.998l28.48-12.189c0,0,3.369-7.443-2.555-7.373
	l-26.652,13.119L1314.545,349.998z"/>
<rect x="1080.489" y="22.142" fill-rule="evenodd" clip-rule="evenodd" fill="#EFEEED" width="87.731" height="104.321"/>
<rect x="1091.138" y="34.239" fill-rule="evenodd" clip-rule="evenodd" fill="#AFAFAF" width="66.435" height="3.104"/>
<rect x="1091.138" y="42.222" fill-rule="evenodd" clip-rule="evenodd" fill="#AFAFAF" width="66.435" height="3.107"/>
<rect x="1091.138" y="50.208" fill-rule="evenodd" clip-rule="evenodd" fill="#AFAFAF" width="66.435" height="3.105"/>
<rect x="1091.138" y="58.191" fill-rule="evenodd" clip-rule="evenodd" fill="#AFAFAF" width="66.435" height="3.107"/>
<rect x="1091.138" y="66.174" fill-rule="evenodd" clip-rule="evenodd" fill="#AFAFAF" width="66.435" height="3.107"/>
<rect x="1091.138" y="74.16" fill-rule="evenodd" clip-rule="evenodd" fill="#AFAFAF" width="66.435" height="3.105"/>
<rect x="1091.138" y="82.146" fill-rule="evenodd" clip-rule="evenodd" fill="#AFAFAF" width="66.435" height="3.104"/>
<rect x="1091.138" y="90.129" fill-rule="evenodd" clip-rule="evenodd" fill="#AFAFAF" width="66.435" height="3.104"/>
<rect x="1091.138" y="98.112" fill-rule="evenodd" clip-rule="evenodd" fill="#AFAFAF" width="66.435" height="3.106"/>
<rect x="1091.138" y="106.096" fill-rule="evenodd" clip-rule="evenodd" fill="#AFAFAF" width="35.608" height="3.106"/>
</svg>
